/* XPM */
static char *contreon[] = {
/* columns rows colors chars-per-pixel */
"32 32 14 1 ",
"  c #43B02A",
". c #53B320",
"X c #2AAC54",
"o c #84BD00",
"O c #10069F",
"+ c #083CB7",
"@ c #0072CE",
"# c #0075CF",
"$ c #00A499",
"% c #00A3AB",
"& c #0096DC",
"* c #0097DC",
"= c #009FDF",
"- c None",
/* pixels */
"--------------------------------",
"-----------------    .oooo------",
"---------------      .ooooooo---",
"-------------        .oooooooo--",
"------------         .oooooooooo",
"-----------X         .oooooooooo",
"----------$$X        .ooooooooo-",
"---------$$$$X       .oooooooo--",
"-------$$$$$$$X      .ooooooo---",
"------$$$$$$$$$X     .oooooo----",
"-----$$$$$$$$$$$X -------oo-----",
"----$$$$$$$$$$$$$---------------",
"---$$$$$$$$$$$$$----------------",
"--$$$$$$$$$$$$$$----------------",
"-$$$$$$$$$$$$$$-----------------",
"%%%%%%%%%%%%%%%-----------------",
"===============-----------------",
"-==============-----------------",
"--==============----------------",
"---=============----------------",
"----============&---------------",
"-----==========*#@-------OO-----",
"------========*#@@@@@+OOOOOO----",
"-------======*#@@@@@@+OOOOOOO---",
"---------===*#@@@@@@@+OOOOOOOO--",
"----------=&#@@@@@@@@+OOOOOOOOO-",
"-----------#@@@@@@@@@+OOOOOOOOOO",
"------------@@@@@@@@@+OOOOOOOOO-",
"-------------@@@@@@@@+OOOOOOOO--",
"---------------@@@@@@+OOOOOOO---",
"-----------------@@@@+OOOO------",
"--------------------------------"
};
